<mxfile host="app.diagrams.net" modified="2022-12-30T22:40:33.592Z" agent="5.0 (Windows NT 10.0; Win64; x64) AppleWebKit/537.36 (KHTML, like Gecko) Chrome/108.0.0.0 Safari/537.36" etag="M7_2wEKPp2oxkkLtXpi6" version="20.6.0" type="github">
  <diagram id="kgpKYQtTHZ0yAKxKKP6v" name="Page-1">
    <mxGraphModel dx="791" dy="378" grid="1" gridSize="10" guides="1" tooltips="1" connect="1" arrows="1" fold="1" page="1" pageScale="1" pageWidth="850" pageHeight="1100" math="0" shadow="0">
      <root>
        <mxCell id="0" />
        <mxCell id="1" parent="0" />
        <mxCell id="3nuBFxr9cyL0pnOWT2aG-1" value="Uživatel" style="shape=umlLifeline;perimeter=lifelinePerimeter;container=1;collapsible=0;recursiveResize=0;rounded=0;shadow=0;strokeWidth=1;" parent="1" vertex="1">
          <mxGeometry x="120" y="80" width="100" height="580" as="geometry" />
        </mxCell>
        <mxCell id="3nuBFxr9cyL0pnOWT2aG-2" value="" style="points=[];perimeter=orthogonalPerimeter;rounded=0;shadow=0;strokeWidth=1;" parent="3nuBFxr9cyL0pnOWT2aG-1" vertex="1">
          <mxGeometry x="45" y="70" width="10" height="510" as="geometry" />
        </mxCell>
        <mxCell id="3nuBFxr9cyL0pnOWT2aG-5" value="&quot;aplikace&quot;" style="shape=umlLifeline;perimeter=lifelinePerimeter;container=1;collapsible=0;recursiveResize=0;rounded=0;shadow=0;strokeWidth=1;" parent="1" vertex="1">
          <mxGeometry x="300" y="80" width="100" height="580" as="geometry" />
        </mxCell>
        <mxCell id="3nuBFxr9cyL0pnOWT2aG-6" value="" style="points=[];perimeter=orthogonalPerimeter;rounded=0;shadow=0;strokeWidth=1;" parent="3nuBFxr9cyL0pnOWT2aG-5" vertex="1">
          <mxGeometry x="45" y="80" width="10" height="500" as="geometry" />
        </mxCell>
        <mxCell id="3nuBFxr9cyL0pnOWT2aG-8" value="Log in" style="verticalAlign=bottom;endArrow=block;entryX=0;entryY=0;shadow=0;strokeWidth=1;" parent="1" source="3nuBFxr9cyL0pnOWT2aG-2" target="3nuBFxr9cyL0pnOWT2aG-6" edge="1">
          <mxGeometry relative="1" as="geometry">
            <mxPoint x="275" y="160" as="sourcePoint" />
          </mxGeometry>
        </mxCell>
        <mxCell id="3nuBFxr9cyL0pnOWT2aG-9" value="Zadej jméno a heslo" style="verticalAlign=bottom;endArrow=block;shadow=0;strokeWidth=1;entryX=0.981;entryY=0.26;entryDx=0;entryDy=0;entryPerimeter=0;" parent="1" edge="1">
          <mxGeometry relative="1" as="geometry">
            <mxPoint x="345.0000000000001" y="188.60000000000008" as="sourcePoint" />
            <mxPoint x="174.80999999999995" y="188.60000000000008" as="targetPoint" />
          </mxGeometry>
        </mxCell>
        <mxCell id="_foYbNM9wcDzi5-kLAAJ-1" value="Zadáno jméno a heslo" style="verticalAlign=bottom;endArrow=block;shadow=0;strokeWidth=1;entryX=-0.101;entryY=0.286;entryDx=0;entryDy=0;entryPerimeter=0;exitX=1.023;exitY=0.302;exitDx=0;exitDy=0;exitPerimeter=0;" edge="1" parent="1">
          <mxGeometry relative="1" as="geometry">
            <mxPoint x="175.2299999999999" y="215.52000000000004" as="sourcePoint" />
            <mxPoint x="343.9900000000001" y="215.64000000000004" as="targetPoint" />
          </mxGeometry>
        </mxCell>
        <mxCell id="_foYbNM9wcDzi5-kLAAJ-2" value="Log in úspěšný" style="verticalAlign=bottom;endArrow=block;shadow=0;strokeWidth=1;entryX=0.981;entryY=0.26;entryDx=0;entryDy=0;entryPerimeter=0;" edge="1" parent="1">
          <mxGeometry relative="1" as="geometry">
            <mxPoint x="345.19" y="244.66000000000005" as="sourcePoint" />
            <mxPoint x="174.99999999999994" y="244.66000000000005" as="targetPoint" />
          </mxGeometry>
        </mxCell>
        <mxCell id="_foYbNM9wcDzi5-kLAAJ-3" value="Přidat jméno X" style="verticalAlign=bottom;endArrow=block;shadow=0;strokeWidth=1;exitX=1.033;exitY=0.416;exitDx=0;exitDy=0;exitPerimeter=0;entryX=-0.031;entryY=0.431;entryDx=0;entryDy=0;entryPerimeter=0;" edge="1" parent="1">
          <mxGeometry relative="1" as="geometry">
            <mxPoint x="175.33000000000004" y="276.04" as="sourcePoint" />
            <mxPoint x="344.68999999999994" y="275.96" as="targetPoint" />
          </mxGeometry>
        </mxCell>
        <mxCell id="_foYbNM9wcDzi5-kLAAJ-4" value="Přidáno jméno X" style="verticalAlign=bottom;endArrow=block;shadow=0;strokeWidth=1;entryX=0.981;entryY=0.26;entryDx=0;entryDy=0;entryPerimeter=0;" edge="1" parent="1">
          <mxGeometry relative="1" as="geometry">
            <mxPoint x="345.19000000000005" y="305.00000000000006" as="sourcePoint" />
            <mxPoint x="174.99999999999994" y="305.00000000000006" as="targetPoint" />
          </mxGeometry>
        </mxCell>
        <mxCell id="_foYbNM9wcDzi5-kLAAJ-5" value="Přidat jméno Y" style="verticalAlign=bottom;endArrow=block;shadow=0;strokeWidth=1;exitX=1.033;exitY=0.416;exitDx=0;exitDy=0;exitPerimeter=0;entryX=-0.031;entryY=0.431;entryDx=0;entryDy=0;entryPerimeter=0;" edge="1" parent="1">
          <mxGeometry relative="1" as="geometry">
            <mxPoint x="175.32999999999993" y="331.03999999999996" as="sourcePoint" />
            <mxPoint x="344.69000000000005" y="330.96000000000004" as="targetPoint" />
          </mxGeometry>
        </mxCell>
        <mxCell id="_foYbNM9wcDzi5-kLAAJ-6" value="Přidáno jméno Y" style="verticalAlign=bottom;endArrow=block;shadow=0;strokeWidth=1;entryX=0.981;entryY=0.26;entryDx=0;entryDy=0;entryPerimeter=0;" edge="1" parent="1">
          <mxGeometry relative="1" as="geometry">
            <mxPoint x="345.19000000000005" y="360" as="sourcePoint" />
            <mxPoint x="175" y="360" as="targetPoint" />
          </mxGeometry>
        </mxCell>
        <mxCell id="_foYbNM9wcDzi5-kLAAJ-7" value="Přidat jméno Z" style="verticalAlign=bottom;endArrow=block;shadow=0;strokeWidth=1;exitX=1.033;exitY=0.416;exitDx=0;exitDy=0;exitPerimeter=0;entryX=-0.031;entryY=0.431;entryDx=0;entryDy=0;entryPerimeter=0;" edge="1" parent="1">
          <mxGeometry relative="1" as="geometry">
            <mxPoint x="176.32999999999993" y="385.03999999999996" as="sourcePoint" />
            <mxPoint x="345.69000000000005" y="384.96000000000004" as="targetPoint" />
          </mxGeometry>
        </mxCell>
        <mxCell id="_foYbNM9wcDzi5-kLAAJ-8" value="Přidáno jméno Z" style="verticalAlign=bottom;endArrow=block;shadow=0;strokeWidth=1;entryX=0.981;entryY=0.26;entryDx=0;entryDy=0;entryPerimeter=0;" edge="1" parent="1">
          <mxGeometry relative="1" as="geometry">
            <mxPoint x="346.1899999999998" y="414" as="sourcePoint" />
            <mxPoint x="176" y="414" as="targetPoint" />
          </mxGeometry>
        </mxCell>
        <mxCell id="_foYbNM9wcDzi5-kLAAJ-9" value="Vybráno počáteční město" style="verticalAlign=bottom;endArrow=block;shadow=0;strokeWidth=1;exitX=1.033;exitY=0.416;exitDx=0;exitDy=0;exitPerimeter=0;entryX=-0.031;entryY=0.431;entryDx=0;entryDy=0;entryPerimeter=0;" edge="1" parent="1">
          <mxGeometry relative="1" as="geometry">
            <mxPoint x="176.32999999999993" y="442.03999999999996" as="sourcePoint" />
            <mxPoint x="345.69000000000005" y="441.96000000000004" as="targetPoint" />
          </mxGeometry>
        </mxCell>
        <mxCell id="_foYbNM9wcDzi5-kLAAJ-10" value="Počáteční jméno zvoleno" style="verticalAlign=bottom;endArrow=block;shadow=0;strokeWidth=1;entryX=0.981;entryY=0.26;entryDx=0;entryDy=0;entryPerimeter=0;" edge="1" parent="1">
          <mxGeometry relative="1" as="geometry">
            <mxPoint x="346.1899999999998" y="471" as="sourcePoint" />
            <mxPoint x="176" y="471" as="targetPoint" />
          </mxGeometry>
        </mxCell>
        <mxCell id="_foYbNM9wcDzi5-kLAAJ-11" value="Vybráno koncové město" style="verticalAlign=bottom;endArrow=block;shadow=0;strokeWidth=1;exitX=1.033;exitY=0.416;exitDx=0;exitDy=0;exitPerimeter=0;entryX=-0.031;entryY=0.431;entryDx=0;entryDy=0;entryPerimeter=0;" edge="1" parent="1">
          <mxGeometry relative="1" as="geometry">
            <mxPoint x="176.32999999999993" y="499.03999999999996" as="sourcePoint" />
            <mxPoint x="345.69000000000005" y="498.96000000000004" as="targetPoint" />
          </mxGeometry>
        </mxCell>
        <mxCell id="_foYbNM9wcDzi5-kLAAJ-12" value="Koncové město zvoleno" style="verticalAlign=bottom;endArrow=block;shadow=0;strokeWidth=1;entryX=0.981;entryY=0.26;entryDx=0;entryDy=0;entryPerimeter=0;" edge="1" parent="1">
          <mxGeometry relative="1" as="geometry">
            <mxPoint x="346.1899999999998" y="528" as="sourcePoint" />
            <mxPoint x="176" y="528" as="targetPoint" />
          </mxGeometry>
        </mxCell>
        <mxCell id="_foYbNM9wcDzi5-kLAAJ-13" value="Spustit výpočet" style="verticalAlign=bottom;endArrow=block;shadow=0;strokeWidth=1;exitX=1.033;exitY=0.416;exitDx=0;exitDy=0;exitPerimeter=0;entryX=-0.031;entryY=0.431;entryDx=0;entryDy=0;entryPerimeter=0;" edge="1" parent="1">
          <mxGeometry relative="1" as="geometry">
            <mxPoint x="175.32999999999993" y="555.04" as="sourcePoint" />
            <mxPoint x="344.69000000000005" y="554.96" as="targetPoint" />
          </mxGeometry>
        </mxCell>
        <mxCell id="_foYbNM9wcDzi5-kLAAJ-14" value="Výsledek spočítán" style="verticalAlign=bottom;endArrow=block;shadow=0;strokeWidth=1;entryX=0.981;entryY=0.26;entryDx=0;entryDy=0;entryPerimeter=0;" edge="1" parent="1">
          <mxGeometry relative="1" as="geometry">
            <mxPoint x="345.1899999999998" y="584" as="sourcePoint" />
            <mxPoint x="175" y="584" as="targetPoint" />
          </mxGeometry>
        </mxCell>
        <mxCell id="_foYbNM9wcDzi5-kLAAJ-15" value="Log off" style="verticalAlign=bottom;endArrow=block;shadow=0;strokeWidth=1;exitX=1.033;exitY=0.416;exitDx=0;exitDy=0;exitPerimeter=0;entryX=-0.031;entryY=0.431;entryDx=0;entryDy=0;entryPerimeter=0;" edge="1" parent="1">
          <mxGeometry relative="1" as="geometry">
            <mxPoint x="175.32999999999993" y="614.04" as="sourcePoint" />
            <mxPoint x="344.69000000000005" y="613.96" as="targetPoint" />
          </mxGeometry>
        </mxCell>
        <mxCell id="_foYbNM9wcDzi5-kLAAJ-16" value="Uživatel odhlášen" style="verticalAlign=bottom;endArrow=block;shadow=0;strokeWidth=1;entryX=0.981;entryY=0.26;entryDx=0;entryDy=0;entryPerimeter=0;" edge="1" parent="1">
          <mxGeometry relative="1" as="geometry">
            <mxPoint x="345.1899999999998" y="643" as="sourcePoint" />
            <mxPoint x="175" y="643" as="targetPoint" />
          </mxGeometry>
        </mxCell>
      </root>
    </mxGraphModel>
  </diagram>
</mxfile>
